HIERARCHY
ROOT Hips
{
	OFFSET 0.000000 0.000000 0.000000 
	CHANNELS 6 Xposition Yposition Zposition Yrotation Zrotation Xrotation 
	JOINT Lumbar
	{
		OFFSET 0.000000 0.000000 0.000000 
		CHANNELS 3 Zrotation Xrotation Yrotation
		JOINT Neck
		{
			OFFSET 0.000000 0.445665 0.000000 
			CHANNELS 3 Zrotation Xrotation Yrotation
			End Site
			{
				OFFSET 0.000000 0.227535 0.000000 
			}
		}
		JOINT RightShoulder
		{
			OFFSET 0.019635 0.377685 0.194865 
			CHANNELS 3 Zrotation Xrotation Yrotation
			JOINT RightElbow
			{
				OFFSET 0.000000 -0.243375 0.000000 
				CHANNELS 2 Zrotation Yrotation
				JOINT RightWrist
				{
					OFFSET 0.000000 -0.264825 0.000000 
					CHANNELS 2 Zrotation Xrotation
					End Site
					{
						OFFSET 0.006600 -0.176220 0.000990 
					}
				}
			}
		}
		JOINT LeftShoulder
		{
			OFFSET 0.019635 0.377685 -0.194865 
			CHANNELS 3 Zrotation Xrotation Yrotation
			JOINT LeftElbow
			{
				OFFSET 0.000000 -0.243375 0.000000 
				CHANNELS 2 Zrotation Yrotation
				JOINT LeftWrist
				{
					OFFSET 0.000000 -0.264825 0.000000 
					CHANNELS 2 Zrotation Xrotation
					End Site
					{
						OFFSET 0.006600 -0.176220 -0.000990 
					}
				}
			}
		}
	}
	JOINT RightHip
	{
		OFFSET 0.052140 -0.069960 0.075570 
		CHANNELS 3 Zrotation Xrotation Yrotation
		JOINT RightKnee
		{
			OFFSET 0.000000 -0.402270 0.000000 
			CHANNELS 1 Zrotation
			JOINT RightAnkle
			{
				OFFSET 0.000000 -0.404085 0.000000 
				CHANNELS 3 Zrotation Xrotation Yrotation
				End Site
				{
					OFFSET 0.204105 -0.089430 0.008415 
				}
			}
		}
	}
	JOINT LeftHip
	{
		OFFSET 0.052140 -0.069960 -0.075570 
		CHANNELS 3 Zrotation Xrotation Yrotation
		JOINT LeftKnee
		{
			OFFSET 0.000000 -0.402270 0.000000 
			CHANNELS 1 Zrotation
			JOINT LeftAnkle
			{
				OFFSET 0.000000 -0.404085 0.000000 
				CHANNELS 3 Zrotation Xrotation Yrotation
				End Site
				{
					OFFSET 0.204105 -0.089430 -0.008415 
				}
			}
		}
	}
}
MOTION
Frames: 30
Frame Time: 0.02
-0.00067 5e-05 2e-05 172.63585 -45.29912 -1.34964 58.28153 1.08025 1.7122 -11.38892 -0.65217 -1.22462 166.38389 -81.02392 -22.73278 12.60632 73.90382 -2.70609 -4.14699 8.12105 107.48042 -55.63534 5.78679 -93.96206 9.27203 0.7862 50.72259 -3.34429 -9.20153 -19.42719 -7.83029 -3.58686 -4.02272 52.76816 4.65925 5.33886 -24.35965 -9.23308 4.37114 4.51663
-0.00119 -3e-05 -0.00013 172.73401 -45.31331 -1.31739 58.33854 1.05084 1.66652 -11.59819 -0.6211 -1.22685 166.39386 -81.51992 -22.47196 12.47137 74.36252 -2.65715 -4.03915 9.35165 107.04028 -55.63502 5.78681 -93.72899 8.98618 0.48733 50.68102 -3.3917 -9.43402 -19.41345 -7.80203 -3.56337 -4.01088 52.75126 4.74346 5.77074 -24.3628 -9.18099 4.3428 4.49785
-0.00171 -0.00011 -0.00028 172.8321 -45.32746 -1.2852 58.39536 1.0215 1.62087 -11.80688 -0.59011 -1.22907 166.37868 -82.01618 -22.22883 12.33546 74.81904 -2.6097 -3.93207 10.5791 106.60099 -55.63471 5.78684 -93.49529 8.70141 0.1889 50.63952 -3.43897 -9.66577 -19.39976 -7.77388 -3.53998 -3.99909 52.73441 4.82743 6.20143 -24.36594 -9.12903 4.31453 4.4791
-0.00223 -0.00018 -0.00043 172.93 -45.3416 -1.25304 58.4522 0.99219 1.57531 -12.01552 -0.55913 -1.2313 166.38374 -82.51099 -21.97209 12.20066 75.27618 -2.56118 -3.82466 11.80604 106.16212 -55.63439 5.78687 -93.26258 8.41647 -0.10916 50.59807 -3.48624 -9.89754 -19.38606 -7.74571 -3.51656 -3.98728 52.71756 4.91138 6.63198 -24.36908 -9.07709 4.28629 4.46037
-0.00275 -0.00026 -0.00058 173.02788 -45.35578 -1.22084 58.50922 0.96281 1.52974 -12.22472 -0.52805 -1.23354 166.42557 -83.00474 -21.68985 12.06746 75.73587 -2.51055 -3.71629 13.03582 105.72261 -55.63408 5.7869 -93.0314 8.13036 -0.4074 50.55655 -3.53366 -10.13005 -19.37234 -7.71745 -3.49305 -3.97542 52.70064 4.99556 7.06374 -24.37223 -9.02504 4.25797 4.4416
-0.00326 -0.00034 -0.00073 173.12641 -45.36988 -1.18865 58.5656 0.93355 1.48393 -12.43229 -0.49727 -1.23574 166.29204 -83.50614 -21.52796 11.92593 76.18573 -2.46971 -3.61191 14.25824 105.2838 -55.63376 5.78693 -92.79265 7.84842 -0.70614 50.51511 -3.58062 -10.36022 -19.3587 -7.68951 -3.4699 -3.96376 52.68394 5.07909 7.49219 -24.37536 -8.97326 4.22979 4.42292
-0.00379 -0.00042 -0.00088 173.22351 -45.38411 -1.15649 58.62322 0.90409 1.43867 -12.64293 -0.46593 -1.238 166.50517 -83.99199 -21.12836 11.80097 76.65465 -2.40956 -3.49975 15.49426 104.84407 -55.63345 5.78696 -92.56834 7.55845 -1.00379 50.47355 -3.62844 -10.59483 -19.3449 -7.66097 -3.44606 -3.95172 52.66682 5.16381 7.92664 -24.37852 -8.921 4.2014 4.40408
-0.0043 -0.00049 -0.00103 173.32194 -45.39824 -1.12429 58.67969 0.87481 1.3929 -12.85073 -0.4351 -1.24021 166.41021 -84.49142 -20.94013 11.66136 77.1064 -2.36661 -3.3945 16.71752 104.40518 -55.63313 5.78699 -92.33264 7.27578 -1.30199 50.43212 -3.67548 -10.82538 -19.33125 -7.63297 -3.42285 -3.94002 52.65009 5.24749 8.35589 -24.38165 -8.86915 4.17317 4.38537
-0.00482 -0.00057 -0.00118 173.42206 -45.41218 -1.09205 58.7348 0.84576 1.34644 -13.05518 -0.40488 -1.24237 165.88809 -85.011 -21.04435 11.50104 77.53561 -2.3473 -3.29878 17.92665 103.96708 -55.63283 5.78701 -92.07502 7.00237 -1.60287 50.39076 -3.72154 -11.05089 -19.31778 -7.60564 -3.40042 -3.92876 52.63382 5.3297 8.77767 -24.38474 -8.81792 4.14524 4.36688
-0.00536 -0.00065 -0.00133 173.51265 -45.42699 -1.06009 58.79789 0.81543 1.30376 -13.27928 -0.37112 -1.24485 167.67119 -85.42537 -19.56867 11.45143 78.08985 -2.19988 -3.15148 19.22154 103.52368 -55.63248 5.78705 -91.91944 6.67669 -1.89441 50.3487 -3.77313 -11.30517 -19.30326 -7.57448 -3.37351 -3.91503 52.61485 5.41977 9.23911 -24.38806 -8.76345 4.11587 4.34729
-0.00584 -0.00072 -0.00148 173.62319 -45.44009 -1.02751 58.84405 0.78778 1.25326 -13.46164 -0.34486 -1.24664 164.69091 -86.0546 -21.35878 11.17378 78.38331 -2.31752 -3.11089 20.33247 103.09205 -55.63222 5.78707 -91.56415 6.46067 -2.2017 50.30833 -3.81313 -11.49889 -19.29097 -7.5514 -3.35604 -3.90649 52.60163 5.49366 9.61896 -24.39089 -8.71564 4.08938 4.32994
-0.00619 -0.00077 -0.00164 173.7903 -45.44751 -0.99337 58.84396 0.76753 1.17966 -13.53091 -0.33904 -1.24649 147.67249 -87.33879 -32.76356 10.21798 77.92911 -3.21334 -3.38368 20.95807 102.68794 -55.6322 5.78707 -90.52288 6.55321 -2.58582 50.2708 -3.82058 -11.52378 -19.28463 -7.5508 -3.36489 -3.91251 52.60389 5.51915 9.75461 -24.39245 -8.68788 4.07231 4.31953
-0.00648 -0.0008 -0.0018 173.97702 -45.45337 -0.95861 58.82682 0.74996 1.09857 -13.55801 -0.34076 -1.24564 126.04605 -88.82677 -47.32932 9.04269 77.21883 -4.36602 -3.75991 21.39475 102.29658 -55.63222 5.78707 -89.30379 6.75426 -2.97995 50.23526 -3.81653 -11.48841 -19.28056 -7.55827 -3.38313 -3.92369 52.61196 5.529 9.81139 -24.3935 -8.66654 4.0579 4.31125
-0.00679 -0.00084 -0.00195 174.15364 -45.46062 -0.92404 58.81733 0.73113 1.0219 -13.60345 -0.33913 -1.24514 107.16451 -90.17864 -60.01909 8.00229 76.64689 -5.36781 -4.07527 21.90592 101.90246 -55.63226 5.78707 -88.25978 6.90092 -3.347 50.20002 -3.81824 -11.48227 -19.27555 -7.56189 -3.3968 -3.93232 52.61759 5.5488 9.91844 -24.39473 -8.64102 4.04124 4.30143
-0.00711 -0.00089 -0.00211 174.33563 -45.46508 -0.88979 58.80821 0.71245 0.94067 -13.65225 -0.33721 -1.2445 85.54238 -91.71393 -74.56017 6.81387 75.98239 -6.51384 -4.44896 22.46709 101.4954 -55.63228 5.78706 -86.82912 7.07006 -3.80743 50.15984 -3.81769 -11.46798 -19.27016 -7.56631 -3.4118 -3.94183 52.62245 5.55713 9.96736 -24.39618 -8.62056 4.02878 4.2939
-0.00739 -0.00092 -0.00226 174.51068 -45.47484 -0.85483 58.79429 0.69415 0.86747 -13.6841 -0.33764 -1.24399 68.51617 -92.91624 -86.00747 5.88073 75.44914 -7.42094 -4.72615 22.87632 101.11852 -55.63218 5.78708 -86.14701 7.21706 -4.07794 50.13026 -3.81909 -11.45668 -19.26608 -7.57094 -3.4262 -3.95069 52.63022 5.58495 10.11498 -24.39704 -8.59143 4.00846 4.28225
-0.00755 -0.00096 -0.0024 174.66511 -45.50087 -0.81722 58.77115 0.67565 0.81564 -13.6793 -0.34297 -1.244 65.50873 -93.14167 -88.00982 5.71615 75.34886 -7.59797 -4.70704 22.93813 100.81955 -55.63167 5.78715 -87.70246 7.28438 -3.80231 50.13081 -3.82907 -11.46603 -19.26519 -7.57456 -3.43703 -3.95672 52.64505 5.67654 10.58666 -24.39642 -8.53384 3.96357 4.25748
-0.00765 -0.00099 -0.00253 174.81122 -45.53203 -0.77909 58.74375 0.65754 0.77268 -13.65897 -0.35035 -1.24415 67.25429 -93.02618 -86.81071 5.81436 75.3879 -7.52626 -4.58806 22.84851 100.5507 -55.63001 5.78725 -89.99409 7.32384 -3.33875 50.14168 -3.84136 -11.48096 -19.26551 -7.57804 -3.44684 -3.96186 52.66248 5.78718 11.15453 -24.39522 -8.46784 3.91109 4.22874
-0.00778 -0.00102 -0.00266 174.95899 -45.5601 -0.74175 58.71843 0.63964 0.72734 -13.64581 -0.35664 -1.24423 66.68816 -93.0718 -87.16277 5.78573 75.35836 -7.57416 -4.51774 22.81161 100.26989 -55.63025 5.78733 -91.86491 7.37115 -2.97384 50.14699 -3.85236 -11.49485 -19.26516 -7.58134 -3.45684 -3.96724 52.67849 5.88506 11.65708 -24.39428 -8.40759 3.86353 4.20263
-0.0079 -0.00105 -0.00278 175.11653 -45.59148 -0.70203 58.69204 0.62019 0.67463 -13.63057 -0.36389 -1.24434 66.58258 -93.09894 -87.22617 5.78041 75.34301 -7.60631 -4.43723 22.83714 99.98325 -55.62898 5.78745 -94.09206 7.44381 -2.55345 50.15616 -3.86392 -11.50019 -19.26536 -7.58597 -3.46834 -3.97348 52.69591 5.9996 12.24754 -24.39334 -8.33941 3.80984 4.17308
-0.00803 -0.00108 -0.00293 175.25134 -45.61699 -0.66717 58.66692 0.60405 0.63964 -13.61668 -0.36951 -1.24442 66.73004 -93.08037 -87.08024 5.7922 75.3334 -7.60506 -4.35288 22.6978 99.71445 -55.6252 5.78751 -95.75616 7.4541 -2.20374 50.15954 -3.87504 -11.52561 -19.26473 -7.58767 -3.47633 -3.97764 52.71067 6.08431 12.67946 -24.39227 -8.28569 3.7671 4.14975
-0.0082 -0.00111 -0.00314 175.32669 -45.62685 -0.64562 58.64776 0.5965 0.64988 -13.60926 -0.37026 -1.24435 66.25541 -93.0242 -87.17788 5.78488 75.32078 -7.60225 -4.28084 22.13585 99.49628 -55.63567 5.78738 -95.66596 7.30983 -2.09616 50.14592 -3.88421 -11.60422 -19.26109 -7.5814 -3.47507 -3.97632 52.71964 6.0807 12.64437 -24.39082 -8.27362 3.75611 4.14438
-0.00838 -0.00114 -0.00338 175.37924 -45.63026 -0.62898 58.62977 0.59231 0.67794 -13.60413 -0.36924 -1.24428 65.937 -92.93285 -87.13662 5.78722 75.31059 -7.56676 -4.20754 21.40362 99.29171 -55.62244 5.78735 -94.98626 7.10001 -2.06586 50.1258 -3.89297 -11.7034 -19.25666 -7.57212 -3.47025 -3.9729 52.7254 6.04673 12.44792 -24.38929 -8.2764 3.75641 4.14542
-0.00856 -0.00117 -0.00361 175.44117 -45.63544 -0.61027 58.61046 0.58689 0.69894 -13.59888 -0.36892 -1.2442 65.6576 -92.85181 -87.13765 5.78754 75.28678 -7.52632 -4.13604 20.76755 99.07718 -55.62834 5.78708 -94.59257 6.91401 -1.99961 50.10763 -3.90204 -11.794 -19.25282 -7.56412 -3.46693 -3.97039 52.73113 6.02757 12.32939 -24.38787 -8.2726 3.75175 4.14366
-0.00874 -0.0012 -0.00384 175.50651 -45.64575 -0.591 58.59455 0.58033 0.71603 -13.58926 -0.36914 -1.24404 65.02382 -92.77865 -87.18107 5.78675 75.30812 -7.5641 -4.05839 20.09334 98.88629 -55.66997 5.78697 -94.1561 6.75708 -1.93075 50.09411 -3.9105 -11.88123 -19.24795 -7.55651 -3.46411 -3.96806 52.74323 6.00475 12.19455 -24.3861 -8.26787 3.74618 4.14135
-0.00891 -0.00124 -0.00407 175.56 -45.64369 -0.57389 58.57159 0.57682 0.74517 -13.58939 -0.36777 -1.24421 65.17015 -92.69055 -87.06414 5.78733 75.24974 -7.43047 -3.99146 19.40177 98.64066 -55.54244 5.78738 -93.64901 6.51839 -1.88756 50.06919 -3.92028 -11.98065 -19.24514 -7.54733 -3.45939 -3.96486 52.7413 5.98211 12.05442 -24.3851 -8.2686 3.74519 4.14169
-0.00907 -0.0013 -0.00433 175.58186 -45.60982 -0.56295 58.53164 0.58182 0.80512 -13.61687 -0.36253 -1.24399 66.82902 -92.52838 -87.24505 5.78711 74.83251 -6.86628 -3.98396 19.23169 98.30878 -55.74571 5.78603 -93.17858 6.12298 -1.90151 50.01459 -3.93251 -12.1056 -19.24726 -7.53489 -3.45032 -3.95983 52.7009 5.9673 11.93578 -24.38571 -8.28174 3.75479 4.14833
-0.00922 -0.00137 -0.00459 175.59352 -45.56353 -0.55372 58.48403 0.58957 0.87624 -13.65402 -0.35569 -1.24434 69.34133 -92.36427 -87.15942 5.78705 74.35662 -6.12577 -3.98425 18.97142 97.9064 -55.65239 5.78842 -92.64028 5.63896 -1.93818 49.94866 -3.94631 -12.24254 -19.2517 -7.52091 -3.43945 -3.954 52.64659 5.95358 11.81734 -24.38722 -8.29972 3.7685 4.15735
-0.00937 -0.00144 -0.00485 175.61279 -45.52242 -0.54282 58.43821 0.59548 0.94094 -13.68615 -0.34953 -1.24525 71.8548 -92.22682 -86.74031 5.78707 74.00191 -5.44397 -3.95959 18.38281 97.49402 -55.14911 5.78783 -92.06833 5.15937 -1.96257 49.88772 -3.96021 -12.37618 -19.25568 -7.50741 -3.42935 -3.94849 52.59894 5.93942 11.70081 -24.38866 -8.31489 3.77989 4.16494
-0.00955 -0.0015 -0.00512 175.61852 -45.48312 -0.53599 58.39972 0.60412 1.01177 -13.72085 -0.34364 -1.24265 72.79805 -91.96908 -88.20805 5.78698 73.26254 -4.84992 -4.01706 19.26875 97.26805 -56.85975 5.78186 -91.73671 4.82394 -1.99955 49.82719 -3.97064 -12.50199 -19.25702 -7.49476 -3.41929 -3.94305 52.54969 5.92423 11.57107 -24.3886 -8.33314 3.79358 4.17421
